<svg xmlns="http://www.w3.org/2000/svg" width="1600" height="1050" viewBox="0 0 1600 1050" role="img" aria-labelledby="title desc">
  <title id="title">Gambar 4.4 ERD Ringkas Prototype Sistem Rekrutmen Digital</title>
  <desc id="desc">ERD ringkas yang menggambarkan entitas utama dan relasi pada prototype sistem rekrutmen digital.</desc>
  <defs>
    <linearGradient id="bg" x1="0" y1="0" x2="1" y2="1">
      <stop offset="0%" stop-color="#f7fbff"/>
      <stop offset="100%" stop-color="#eef6fb"/>
    </linearGradient>
    <filter id="shadow" x="-20%" y="-20%" width="140%" height="140%">
      <feDropShadow dx="0" dy="6" stdDeviation="8" flood-color="#0f2940" flood-opacity="0.10"/>
    </filter>
    <marker id="arrow" markerWidth="10" markerHeight="10" refX="9" refY="5" orient="auto" markerUnits="strokeWidth">
      <path d="M 0 0 L 10 5 L 0 10 z" fill="#52677a"/>
    </marker>
  </defs>

  <rect width="1600" height="1050" fill="url(#bg)"/>
  <text x="800" y="46" text-anchor="middle" font-family="Arial, Helvetica, sans-serif" font-size="28" font-weight="700" fill="#0f2940">ERD Ringkas Prototype Sistem Rekrutmen Digital</text>
  <text x="800" y="78" text-anchor="middle" font-family="Arial, Helvetica, sans-serif" font-size="15" fill="#52677a">Relasi utama data pengguna, perusahaan, lowongan, lamaran, wawancara, kontrak, resign, berita, dan audit log.</text>

  <!-- Users and profiles -->
  <g filter="url(#shadow)">
    <rect x="80" y="145" width="210" height="150" rx="16" fill="#ffffff" stroke="#c8d7e3" stroke-width="2"/>
    <rect x="80" y="145" width="210" height="38" rx="16" fill="#03587f"/>
    <path d="M 80 165 L 290 165 L 290 183 L 80 183 Z" fill="#03587f"/>
    <text x="185" y="170" text-anchor="middle" font-family="Arial, Helvetica, sans-serif" font-size="15" font-weight="700" fill="#ffffff">users</text>
    <text x="100" y="208" font-family="Arial, Helvetica, sans-serif" font-size="12" fill="#0f2940">PK id</text>
    <text x="100" y="230" font-family="Arial, Helvetica, sans-serif" font-size="12" fill="#52677a">email, password</text>
    <text x="100" y="252" font-family="Arial, Helvetica, sans-serif" font-size="12" fill="#52677a">role, status</text>
    <text x="100" y="274" font-family="Arial, Helvetica, sans-serif" font-size="12" fill="#52677a">createdAt, updatedAt</text>
  </g>

  <g filter="url(#shadow)">
    <rect x="380" y="105" width="230" height="190" rx="16" fill="#ffffff" stroke="#c8d7e3" stroke-width="2"/>
    <rect x="380" y="105" width="230" height="38" rx="16" fill="#0487bd"/>
    <path d="M 380 125 L 610 125 L 610 143 L 380 143 Z" fill="#0487bd"/>
    <text x="495" y="130" text-anchor="middle" font-family="Arial, Helvetica, sans-serif" font-size="15" font-weight="700" fill="#ffffff">jobseekers</text>
    <text x="400" y="168" font-family="Arial, Helvetica, sans-serif" font-size="12" fill="#0f2940">PK id, FK userId</text>
    <text x="400" y="190" font-family="Arial, Helvetica, sans-serif" font-size="12" fill="#52677a">firstName, lastName</text>
    <text x="400" y="212" font-family="Arial, Helvetica, sans-serif" font-size="12" fill="#52677a">phone, address, kecamatan</text>
    <text x="400" y="234" font-family="Arial, Helvetica, sans-serif" font-size="12" fill="#52677a">cvUrl, ktpUrl, ak1Url</text>
    <text x="400" y="256" font-family="Arial, Helvetica, sans-serif" font-size="12" fill="#52677a">profileCompleteness</text>
  </g>

  <g filter="url(#shadow)">
    <rect x="380" y="360" width="230" height="160" rx="16" fill="#ffffff" stroke="#c8d7e3" stroke-width="2"/>
    <rect x="380" y="360" width="230" height="38" rx="16" fill="#0487bd"/>
    <path d="M 380 380 L 610 380 L 610 398 L 380 398 Z" fill="#0487bd"/>
    <text x="495" y="385" text-anchor="middle" font-family="Arial, Helvetica, sans-serif" font-size="15" font-weight="700" fill="#ffffff">recruiters</text>
    <text x="400" y="423" font-family="Arial, Helvetica, sans-serif" font-size="12" fill="#0f2940">PK id, FK userId</text>
    <text x="400" y="445" font-family="Arial, Helvetica, sans-serif" font-size="12" fill="#0f2940">FK companyId</text>
    <text x="400" y="467" font-family="Arial, Helvetica, sans-serif" font-size="12" fill="#52677a">firstName, position</text>
    <text x="400" y="489" font-family="Arial, Helvetica, sans-serif" font-size="12" fill="#52677a">permission, isVerified</text>
  </g>

  <!-- Company jobs applications -->
  <g filter="url(#shadow)">
    <rect x="710" y="330" width="245" height="190" rx="16" fill="#ffffff" stroke="#c8d7e3" stroke-width="2"/>
    <rect x="710" y="330" width="245" height="38" rx="16" fill="#1f7a45"/>
    <path d="M 710 350 L 955 350 L 955 368 L 710 368 Z" fill="#1f7a45"/>
    <text x="832" y="355" text-anchor="middle" font-family="Arial, Helvetica, sans-serif" font-size="15" font-weight="700" fill="#ffffff">companies</text>
    <text x="730" y="393" font-family="Arial, Helvetica, sans-serif" font-size="12" fill="#0f2940">PK id</text>
    <text x="730" y="415" font-family="Arial, Helvetica, sans-serif" font-size="12" fill="#52677a">name, slug, industry</text>
    <text x="730" y="437" font-family="Arial, Helvetica, sans-serif" font-size="12" fill="#52677a">email, address, city</text>
    <text x="730" y="459" font-family="Arial, Helvetica, sans-serif" font-size="12" fill="#52677a">status, verified</text>
    <text x="730" y="481" font-family="Arial, Helvetica, sans-serif" font-size="12" fill="#52677a">verifiedAt, rejectionReason</text>
  </g>

  <g filter="url(#shadow)">
    <rect x="1055" y="300" width="245" height="230" rx="16" fill="#ffffff" stroke="#c8d7e3" stroke-width="2"/>
    <rect x="1055" y="300" width="245" height="38" rx="16" fill="#1f7a45"/>
    <path d="M 1055 320 L 1300 320 L 1300 338 L 1055 338 Z" fill="#1f7a45"/>
    <text x="1177" y="325" text-anchor="middle" font-family="Arial, Helvetica, sans-serif" font-size="15" font-weight="700" fill="#ffffff">jobs</text>
    <text x="1075" y="363" font-family="Arial, Helvetica, sans-serif" font-size="12" fill="#0f2940">PK id, FK companyId</text>
    <text x="1075" y="385" font-family="Arial, Helvetica, sans-serif" font-size="12" fill="#0f2940">FK recruiterId</text>
    <text x="1075" y="407" font-family="Arial, Helvetica, sans-serif" font-size="12" fill="#52677a">title, slug, description</text>
    <text x="1075" y="429" font-family="Arial, Helvetica, sans-serif" font-size="12" fill="#52677a">jobType, location, salary</text>
    <text x="1075" y="451" font-family="Arial, Helvetica, sans-serif" font-size="12" fill="#52677a">status, isActive</text>
    <text x="1075" y="473" font-family="Arial, Helvetica, sans-serif" font-size="12" fill="#52677a">applicationCount</text>
    <text x="1075" y="495" font-family="Arial, Helvetica, sans-serif" font-size="12" fill="#52677a">deadline, publishedAt</text>
  </g>

  <g filter="url(#shadow)">
    <rect x="1055" y="610" width="245" height="220" rx="16" fill="#ffffff" stroke="#c8d7e3" stroke-width="2"/>
    <rect x="1055" y="610" width="245" height="38" rx="16" fill="#8a5a00"/>
    <path d="M 1055 630 L 1300 630 L 1300 648 L 1055 648 Z" fill="#8a5a00"/>
    <text x="1177" y="635" text-anchor="middle" font-family="Arial, Helvetica, sans-serif" font-size="15" font-weight="700" fill="#ffffff">applications</text>
    <text x="1075" y="673" font-family="Arial, Helvetica, sans-serif" font-size="12" fill="#0f2940">PK id, FK jobId</text>
    <text x="1075" y="695" font-family="Arial, Helvetica, sans-serif" font-size="12" fill="#0f2940">FK jobseekerId</text>
    <text x="1075" y="717" font-family="Arial, Helvetica, sans-serif" font-size="12" fill="#52677a">coverLetter, resumeUrl</text>
    <text x="1075" y="739" font-family="Arial, Helvetica, sans-serif" font-size="12" fill="#52677a">status, appliedAt</text>
    <text x="1075" y="761" font-family="Arial, Helvetica, sans-serif" font-size="12" fill="#52677a">reviewedAt, recruiterNotes</text>
    <text x="1075" y="783" font-family="Arial, Helvetica, sans-serif" font-size="12" fill="#52677a">unique jobId + jobseekerId</text>
  </g>

  <!-- Interviews and contracts -->
  <g filter="url(#shadow)">
    <rect x="1370" y="295" width="200" height="160" rx="16" fill="#ffffff" stroke="#c8d7e3" stroke-width="2"/>
    <rect x="1370" y="295" width="200" height="38" rx="16" fill="#6d4eb2"/>
    <path d="M 1370 315 L 1570 315 L 1570 333 L 1370 333 Z" fill="#6d4eb2"/>
    <text x="1470" y="320" text-anchor="middle" font-family="Arial, Helvetica, sans-serif" font-size="15" font-weight="700" fill="#ffffff">interviews</text>
    <text x="1390" y="358" font-family="Arial, Helvetica, sans-serif" font-size="12" fill="#0f2940">PK id, FK recruiterId</text>
    <text x="1390" y="380" font-family="Arial, Helvetica, sans-serif" font-size="12" fill="#52677a">scheduledAt, duration</text>
    <text x="1390" y="402" font-family="Arial, Helvetica, sans-serif" font-size="12" fill="#52677a">meetingType, URL</text>
    <text x="1390" y="424" font-family="Arial, Helvetica, sans-serif" font-size="12" fill="#52677a">status</text>
  </g>

  <g filter="url(#shadow)">
    <rect x="1370" y="520" width="200" height="150" rx="16" fill="#ffffff" stroke="#c8d7e3" stroke-width="2"/>
    <rect x="1370" y="520" width="200" height="38" rx="16" fill="#6d4eb2"/>
    <path d="M 1370 540 L 1570 540 L 1570 558 L 1370 558 Z" fill="#6d4eb2"/>
    <text x="1470" y="545" text-anchor="middle" font-family="Arial, Helvetica, sans-serif" font-size="14" font-weight="700" fill="#ffffff">interview_participants</text>
    <text x="1390" y="583" font-family="Arial, Helvetica, sans-serif" font-size="12" fill="#0f2940">PK id</text>
    <text x="1390" y="605" font-family="Arial, Helvetica, sans-serif" font-size="12" fill="#0f2940">FK interviewId</text>
    <text x="1390" y="627" font-family="Arial, Helvetica, sans-serif" font-size="12" fill="#0f2940">FK applicationId</text>
    <text x="1390" y="649" font-family="Arial, Helvetica, sans-serif" font-size="12" fill="#52677a">status, response</text>
  </g>

  <g filter="url(#shadow)">
    <rect x="710" y="620" width="245" height="165" rx="16" fill="#ffffff" stroke="#c8d7e3" stroke-width="2"/>
    <rect x="710" y="620" width="245" height="38" rx="16" fill="#9b2c2c"/>
    <path d="M 710 640 L 955 640 L 955 658 L 710 658 Z" fill="#9b2c2c"/>
    <text x="832" y="645" text-anchor="middle" font-family="Arial, Helvetica, sans-serif" font-size="15" font-weight="700" fill="#ffffff">resignations</text>
    <text x="730" y="683" font-family="Arial, Helvetica, sans-serif" font-size="12" fill="#0f2940">PK id</text>
    <text x="730" y="705" font-family="Arial, Helvetica, sans-serif" font-size="12" fill="#0f2940">FK applicationId</text>
    <text x="730" y="727" font-family="Arial, Helvetica, sans-serif" font-size="12" fill="#0f2940">FK jobseekerId</text>
    <text x="730" y="749" font-family="Arial, Helvetica, sans-serif" font-size="12" fill="#52677a">reason, letterUrl, status</text>
  </g>

  <g filter="url(#shadow)">
    <rect x="710" y="850" width="245" height="150" rx="16" fill="#ffffff" stroke="#c8d7e3" stroke-width="2"/>
    <rect x="710" y="850" width="245" height="38" rx="16" fill="#9b2c2c"/>
    <path d="M 710 870 L 955 870 L 955 888 L 710 888 Z" fill="#9b2c2c"/>
    <text x="832" y="875" text-anchor="middle" font-family="Arial, Helvetica, sans-serif" font-size="15" font-weight="700" fill="#ffffff">contract_registrations</text>
    <text x="730" y="913" font-family="Arial, Helvetica, sans-serif" font-size="12" fill="#0f2940">PK id, FK recruiterId</text>
    <text x="730" y="935" font-family="Arial, Helvetica, sans-serif" font-size="12" fill="#0f2940">FK companyId</text>
    <text x="730" y="957" font-family="Arial, Helvetica, sans-serif" font-size="12" fill="#52677a">status, documents, notes</text>
  </g>

  <g filter="url(#shadow)">
    <rect x="1055" y="870" width="245" height="130" rx="16" fill="#ffffff" stroke="#c8d7e3" stroke-width="2"/>
    <rect x="1055" y="870" width="245" height="38" rx="16" fill="#9b2c2c"/>
    <path d="M 1055 890 L 1300 890 L 1300 908 L 1055 908 Z" fill="#9b2c2c"/>
    <text x="1177" y="895" text-anchor="middle" font-family="Arial, Helvetica, sans-serif" font-size="15" font-weight="700" fill="#ffffff">contract_workers</text>
    <text x="1075" y="933" font-family="Arial, Helvetica, sans-serif" font-size="12" fill="#0f2940">FK registrationId</text>
    <text x="1075" y="955" font-family="Arial, Helvetica, sans-serif" font-size="12" fill="#0f2940">FK applicationId, jobseekerId</text>
    <text x="1075" y="977" font-family="Arial, Helvetica, sans-serif" font-size="12" fill="#52677a">startDate, endDate, status</text>
  </g>

  <!-- Supporting entities -->
  <g filter="url(#shadow)">
    <rect x="80" y="600" width="210" height="120" rx="16" fill="#ffffff" stroke="#c8d7e3" stroke-width="2"/>
    <rect x="80" y="600" width="210" height="38" rx="16" fill="#52677a"/>
    <path d="M 80 620 L 290 620 L 290 638 L 80 638 Z" fill="#52677a"/>
    <text x="185" y="625" text-anchor="middle" font-family="Arial, Helvetica, sans-serif" font-size="15" font-weight="700" fill="#ffffff">audit_logs</text>
    <text x="100" y="663" font-family="Arial, Helvetica, sans-serif" font-size="12" fill="#0f2940">PK id, userId</text>
    <text x="100" y="685" font-family="Arial, Helvetica, sans-serif" font-size="12" fill="#52677a">action, targetType</text>
    <text x="100" y="707" font-family="Arial, Helvetica, sans-serif" font-size="12" fill="#52677a">ipAddress, userAgent</text>
  </g>

  <g filter="url(#shadow)">
    <rect x="80" y="790" width="210" height="120" rx="16" fill="#ffffff" stroke="#c8d7e3" stroke-width="2"/>
    <rect x="80" y="790" width="210" height="38" rx="16" fill="#52677a"/>
    <path d="M 80 810 L 290 810 L 290 828 L 80 828 Z" fill="#52677a"/>
    <text x="185" y="815" text-anchor="middle" font-family="Arial, Helvetica, sans-serif" font-size="15" font-weight="700" fill="#ffffff">news</text>
    <text x="100" y="853" font-family="Arial, Helvetica, sans-serif" font-size="12" fill="#0f2940">PK id, slug</text>
    <text x="100" y="875" font-family="Arial, Helvetica, sans-serif" font-size="12" fill="#52677a">title, content, status</text>
    <text x="100" y="897" font-family="Arial, Helvetica, sans-serif" font-size="12" fill="#52677a">publishedAt</text>
  </g>

  <!-- Relationship lines -->
  <line x1="290" y1="205" x2="380" y2="200" stroke="#52677a" stroke-width="3" marker-end="url(#arrow)"/>
  <text x="335" y="191" text-anchor="middle" font-family="Arial, Helvetica, sans-serif" font-size="11" fill="#52677a">1:1</text>
  <line x1="290" y1="245" x2="380" y2="430" stroke="#52677a" stroke-width="3" marker-end="url(#arrow)"/>
  <text x="330" y="350" text-anchor="middle" font-family="Arial, Helvetica, sans-serif" font-size="11" fill="#52677a">1:1</text>
  <line x1="610" y1="440" x2="710" y2="425" stroke="#52677a" stroke-width="3" marker-end="url(#arrow)"/>
  <text x="660" y="420" text-anchor="middle" font-family="Arial, Helvetica, sans-serif" font-size="11" fill="#52677a">N:1</text>
  <line x1="955" y1="420" x2="1055" y2="415" stroke="#52677a" stroke-width="3" marker-end="url(#arrow)"/>
  <text x="1005" y="405" text-anchor="middle" font-family="Arial, Helvetica, sans-serif" font-size="11" fill="#52677a">1:N</text>
  <line x1="610" y1="500" x2="1055" y2="680" stroke="#52677a" stroke-width="3" marker-end="url(#arrow)"/>
  <text x="825" y="585" text-anchor="middle" font-family="Arial, Helvetica, sans-serif" font-size="11" fill="#52677a">jobseeker 1:N applications</text>
  <line x1="1177" y1="530" x2="1177" y2="610" stroke="#52677a" stroke-width="3" marker-end="url(#arrow)"/>
  <text x="1238" y="574" text-anchor="middle" font-family="Arial, Helvetica, sans-serif" font-size="11" fill="#52677a">job 1:N</text>
  <line x1="1300" y1="365" x2="1370" y2="365" stroke="#52677a" stroke-width="3" marker-end="url(#arrow)"/>
  <text x="1335" y="352" text-anchor="middle" font-family="Arial, Helvetica, sans-serif" font-size="11" fill="#52677a">1:N</text>
  <line x1="1470" y1="455" x2="1470" y2="520" stroke="#52677a" stroke-width="3" marker-end="url(#arrow)"/>
  <text x="1522" y="492" text-anchor="middle" font-family="Arial, Helvetica, sans-serif" font-size="11" fill="#52677a">1:N</text>
  <line x1="1300" y1="705" x2="1370" y2="610" stroke="#52677a" stroke-width="3" marker-end="url(#arrow)"/>
  <text x="1350" y="690" text-anchor="middle" font-family="Arial, Helvetica, sans-serif" font-size="11" fill="#52677a">N:1</text>
  <line x1="1055" y1="725" x2="955" y2="705" stroke="#52677a" stroke-width="3" marker-end="url(#arrow)"/>
  <text x="1005" y="702" text-anchor="middle" font-family="Arial, Helvetica, sans-serif" font-size="11" fill="#52677a">1:1 resign</text>
  <line x1="832" y1="785" x2="832" y2="850" stroke="#52677a" stroke-width="3" marker-end="url(#arrow)" opacity="0.55"/>
  <line x1="955" y1="925" x2="1055" y2="930" stroke="#52677a" stroke-width="3" marker-end="url(#arrow)"/>
  <text x="1005" y="917" text-anchor="middle" font-family="Arial, Helvetica, sans-serif" font-size="11" fill="#52677a">1:N</text>
  <line x1="1177" y1="830" x2="1177" y2="870" stroke="#52677a" stroke-width="3" marker-end="url(#arrow)"/>
  <line x1="495" y1="520" x2="710" y2="900" stroke="#52677a" stroke-width="3" marker-end="url(#arrow)" opacity="0.6"/>
  <line x1="832" y1="520" x2="832" y2="850" stroke="#52677a" stroke-width="3" marker-end="url(#arrow)" opacity="0.6"/>
  <line x1="185" y1="295" x2="185" y2="600" stroke="#52677a" stroke-width="3" stroke-dasharray="7 7" marker-end="url(#arrow)" opacity="0.65"/>

  <rect x="560" y="930" width="520" height="70" rx="18" fill="#ffffff" stroke="#c8d7e3" stroke-width="2"/>
  <text x="820" y="956" text-anchor="middle" font-family="Arial, Helvetica, sans-serif" font-size="14" font-weight="700" fill="#0f2940">Keterangan</text>
  <text x="820" y="980" text-anchor="middle" font-family="Arial, Helvetica, sans-serif" font-size="12" fill="#52677a">PK = Primary Key, FK = Foreign Key. ERD dibuat ringkas agar fokus pada relasi utama proses rekrutmen.</text>
</svg>
